<svg xmlns="http://www.w3.org/2000/svg" xmlns:xlink="http://www.w3.org/1999/xlink" version="1.1" class="marks" width="946" height="397" viewBox="0 0 946 397"><rect width="946" height="397" fill="white"/><g fill="none" stroke-miterlimit="10" transform="translate(58,27)"><g class="mark-group role-frame root" role="graphics-object" aria-roledescription="group mark container"><g transform="translate(0,0)"><path class="background" aria-hidden="true" d="M0.5,0.5h800v300h-800Z" stroke="#ddd"/><g><g class="mark-group role-axis" role="graphics-symbol" aria-roledescription="axis" aria-label="Y-axis for a linear scale with values from 0 to 11,000"><g transform="translate(0.5,0.5)"><path class="background" aria-hidden="true" d="M0,0h0v0h0Z" pointer-events="none"/><g><g class="mark-rule role-axis-grid" pointer-events="none"><line transform="translate(0,300)" x2="800" y2="0" stroke="#ddd" stroke-width="1" opacity="1"/><line transform="translate(0,273)" x2="800" y2="0" stroke="#ddd" stroke-width="1" opacity="1"/><line transform="translate(0,245)" x2="800" y2="0" stroke="#ddd" stroke-width="1" opacity="1"/><line transform="translate(0,218)" x2="800" y2="0" stroke="#ddd" stroke-width="1" opacity="1"/><line transform="translate(0,191)" x2="800" y2="0" stroke="#ddd" stroke-width="1" opacity="1"/><line transform="translate(0,164)" x2="800" y2="0" stroke="#ddd" stroke-width="1" opacity="1"/><line transform="translate(0,136)" x2="800" y2="0" stroke="#ddd" stroke-width="1" opacity="1"/><line transform="translate(0,109)" x2="800" y2="0" stroke="#ddd" stroke-width="1" opacity="1"/><line transform="translate(0,82)" x2="800" y2="0" stroke="#ddd" stroke-width="1" opacity="1"/><line transform="translate(0,55)" x2="800" y2="0" stroke="#ddd" stroke-width="1" opacity="1"/><line transform="translate(0,27)" x2="800" y2="0" stroke="#ddd" stroke-width="1" opacity="1"/><line transform="translate(0,0)" x2="800" y2="0" stroke="#ddd" stroke-width="1" opacity="1"/></g></g><path class="foreground" aria-hidden="true" d="" pointer-events="none" display="none"/></g></g><g class="mark-group role-axis" role="graphics-symbol" aria-roledescription="axis" aria-label="X-axis titled 'month launched' for a discrete scale with 106 values: Wed Apr 01 2009 00:00:00 GMT-0700 (Pacific Daylight Time), Fri May 01 2009 00:00:00 GMT-0700 (Pacific Daylight Time), Mon Jun 01 2009 00:00:00 GMT-0700 (Pacific Daylight Time), Wed Jul 01 2009 00:00:00 GMT-0700 (Pacific Daylight Time), Sat Aug 01 2009 00:00:00 GMT-0700 (Pacific Daylight Time), ending with Mon Jan 01 2018 00:00:00 GMT-0800 (Pacific Standard Time)"><g transform="translate(0.5,300.5)"><path class="background" aria-hidden="true" d="M0,0h0v0h0Z" pointer-events="none"/><g><g class="mark-rule role-axis-tick" pointer-events="none"><line transform="translate(4,0)" x2="0" y2="5" stroke="#888" stroke-width="1" opacity="1"/><line transform="translate(11,0)" x2="0" y2="5" stroke="#888" stroke-width="1" opacity="1"/><line transform="translate(19,0)" x2="0" y2="5" stroke="#888" stroke-width="1" opacity="1"/><line transform="translate(26,0)" x2="0" y2="5" stroke="#888" stroke-width="1" opacity="1"/><line transform="translate(34,0)" x2="0" y2="5" stroke="#888" stroke-width="1" opacity="1"/><line transform="translate(42,0)" x2="0" y2="5" stroke="#888" stroke-width="1" opacity="1"/><line transform="translate(49,0)" x2="0" y2="5" stroke="#888" stroke-width="1" opacity="1"/><line transform="translate(57,0)" x2="0" y2="5" stroke="#888" stroke-width="1" opacity="1"/><line transform="translate(64,0)" x2="0" y2="5" stroke="#888" stroke-width="1" opacity="1"/><line transform="translate(72,0)" x2="0" y2="5" stroke="#888" stroke-width="1" opacity="1"/><line transform="translate(79,0)" x2="0" y2="5" stroke="#888" stroke-width="1" opacity="1"/><line transform="translate(87,0)" x2="0" y2="5" stroke="#888" stroke-width="1" opacity="1"/><line transform="translate(94,0)" x2="0" y2="5" stroke="#888" stroke-width="1" opacity="1"/><line transform="translate(102,0)" x2="0" y2="5" stroke="#888" stroke-width="1" opacity="1"/><line transform="translate(109,0)" x2="0" y2="5" stroke="#888" stroke-width="1" opacity="1"/><line transform="translate(117,0)" x2="0" y2="5" stroke="#888" stroke-width="1" opacity="1"/><line transform="translate(125,0)" x2="0" y2="5" stroke="#888" stroke-width="1" opacity="1"/><line transform="translate(132,0)" x2="0" y2="5" stroke="#888" stroke-width="1" opacity="1"/><line transform="translate(140,0)" x2="0" y2="5" stroke="#888" stroke-width="1" opacity="1"/><line transform="translate(147,0)" x2="0" y2="5" stroke="#888" stroke-width="1" opacity="1"/><line transform="translate(155,0)" x2="0" y2="5" stroke="#888" stroke-width="1" opacity="1"/><line transform="translate(162,0)" x2="0" y2="5" stroke="#888" stroke-width="1" opacity="1"/><line transform="translate(170,0)" x2="0" y2="5" stroke="#888" stroke-width="1" opacity="1"/><line transform="translate(177,0)" x2="0" y2="5" stroke="#888" stroke-width="1" opacity="1"/><line transform="translate(185,0)" x2="0" y2="5" stroke="#888" stroke-width="1" opacity="1"/><line transform="translate(192,0)" x2="0" y2="5" stroke="#888" stroke-width="1" opacity="1"/><line transform="translate(200,0)" x2="0" y2="5" stroke="#888" stroke-width="1" opacity="1"/><line transform="translate(208,0)" x2="0" y2="5" stroke="#888" stroke-width="1" opacity="1"/><line transform="translate(215,0)" x2="0" y2="5" stroke="#888" stroke-width="1" opacity="1"/><line transform="translate(223,0)" x2="0" y2="5" stroke="#888" stroke-width="1" opacity="1"/><line transform="translate(230,0)" x2="0" y2="5" stroke="#888" stroke-width="1" opacity="1"/><line transform="translate(238,0)" x2="0" y2="5" stroke="#888" stroke-width="1" opacity="1"/><line transform="translate(245,0)" x2="0" y2="5" stroke="#888" stroke-width="1" opacity="1"/><line transform="translate(253,0)" x2="0" y2="5" stroke="#888" stroke-width="1" opacity="1"/><line transform="translate(260,0)" x2="0" y2="5" stroke="#888" stroke-width="1" opacity="1"/><line transform="translate(268,0)" x2="0" y2="5" stroke="#888" stroke-width="1" opacity="1"/><line transform="translate(275,0)" x2="0" y2="5" stroke="#888" stroke-width="1" opacity="1"/><line transform="translate(283,0)" x2="0" y2="5" stroke="#888" stroke-width="1" opacity="1"/><line transform="translate(291,0)" x2="0" y2="5" stroke="#888" stroke-width="1" opacity="1"/><line transform="translate(298,0)" x2="0" y2="5" stroke="#888" stroke-width="1" opacity="1"/><line transform="translate(306,0)" x2="0" y2="5" stroke="#888" stroke-width="1" opacity="1"/><line transform="translate(313,0)" x2="0" y2="5" stroke="#888" stroke-width="1" opacity="1"/><line transform="translate(321,0)" x2="0" y2="5" stroke="#888" stroke-width="1" opacity="1"/><line transform="translate(328,0)" x2="0" y2="5" stroke="#888" stroke-width="1" opacity="1"/><line transform="translate(336,0)" x2="0" y2="5" stroke="#888" stroke-width="1" opacity="1"/><line transform="translate(343,0)" x2="0" y2="5" stroke="#888" stroke-width="1" opacity="1"/><line transform="translate(351,0)" x2="0" y2="5" stroke="#888" stroke-width="1" opacity="1"/><line transform="translate(358,0)" x2="0" y2="5" stroke="#888" stroke-width="1" opacity="1"/><line transform="translate(366,0)" x2="0" y2="5" stroke="#888" stroke-width="1" opacity="1"/><line transform="translate(374,0)" x2="0" y2="5" stroke="#888" stroke-width="1" opacity="1"/><line transform="translate(381,0)" x2="0" y2="5" stroke="#888" stroke-width="1" opacity="1"/><line transform="translate(389,0)" x2="0" y2="5" stroke="#888" stroke-width="1" opacity="1"/><line transform="translate(396,0)" x2="0" y2="5" stroke="#888" stroke-width="1" opacity="1"/><line transform="translate(404,0)" x2="0" y2="5" stroke="#888" stroke-width="1" opacity="1"/><line transform="translate(411,0)" x2="0" y2="5" stroke="#888" stroke-width="1" opacity="1"/><line transform="translate(419,0)" x2="0" y2="5" stroke="#888" stroke-width="1" opacity="1"/><line transform="translate(426,0)" x2="0" y2="5" stroke="#888" stroke-width="1" opacity="1"/><line transform="translate(434,0)" x2="0" y2="5" stroke="#888" stroke-width="1" opacity="1"/><line transform="translate(442,0)" x2="0" y2="5" stroke="#888" stroke-width="1" opacity="1"/><line transform="translate(449,0)" x2="0" y2="5" stroke="#888" stroke-width="1" opacity="1"/><line transform="translate(457,0)" x2="0" y2="5" stroke="#888" stroke-width="1" opacity="1"/><line transform="translate(464,0)" x2="0" y2="5" stroke="#888" stroke-width="1" opacity="1"/><line transform="translate(472,0)" x2="0" y2="5" stroke="#888" stroke-width="1" opacity="1"/><line transform="translate(479,0)" x2="0" y2="5" stroke="#888" stroke-width="1" opacity="1"/><line transform="translate(487,0)" x2="0" y2="5" stroke="#888" stroke-width="1" opacity="1"/><line transform="translate(494,0)" x2="0" y2="5" stroke="#888" stroke-width="1" opacity="1"/><line transform="translate(502,0)" x2="0" y2="5" stroke="#888" stroke-width="1" opacity="1"/><line transform="translate(509,0)" x2="0" y2="5" stroke="#888" stroke-width="1" opacity="1"/><line transform="translate(517,0)" x2="0" y2="5" stroke="#888" stroke-width="1" opacity="1"/><line transform="translate(525,0)" x2="0" y2="5" stroke="#888" stroke-width="1" opacity="1"/><line transform="translate(532,0)" x2="0" y2="5" stroke="#888" stroke-width="1" opacity="1"/><line transform="translate(540,0)" x2="0" y2="5" stroke="#888" stroke-width="1" opacity="1"/><line transform="translate(547,0)" x2="0" y2="5" stroke="#888" stroke-width="1" opacity="1"/><line transform="translate(555,0)" x2="0" y2="5" stroke="#888" stroke-width="1" opacity="1"/><line transform="translate(562,0)" x2="0" y2="5" stroke="#888" stroke-width="1" opacity="1"/><line transform="translate(570,0)" x2="0" y2="5" stroke="#888" stroke-width="1" opacity="1"/><line transform="translate(577,0)" x2="0" y2="5" stroke="#888" stroke-width="1" opacity="1"/><line transform="translate(585,0)" x2="0" y2="5" stroke="#888" stroke-width="1" opacity="1"/><line transform="translate(592,0)" x2="0" y2="5" stroke="#888" stroke-width="1" opacity="1"/><line transform="translate(600,0)" x2="0" y2="5" stroke="#888" stroke-width="1" opacity="1"/><line transform="translate(608,0)" x2="0" y2="5" stroke="#888" stroke-width="1" opacity="1"/><line transform="translate(615,0)" x2="0" y2="5" stroke="#888" stroke-width="1" opacity="1"/><line transform="translate(623,0)" x2="0" y2="5" stroke="#888" stroke-width="1" opacity="1"/><line transform="translate(630,0)" x2="0" y2="5" stroke="#888" stroke-width="1" opacity="1"/><line transform="translate(638,0)" x2="0" y2="5" stroke="#888" stroke-width="1" opacity="1"/><line transform="translate(645,0)" x2="0" y2="5" stroke="#888" stroke-width="1" opacity="1"/><line transform="translate(653,0)" x2="0" y2="5" stroke="#888" stroke-width="1" opacity="1"/><line transform="translate(660,0)" x2="0" y2="5" stroke="#888" stroke-width="1" opacity="1"/><line transform="translate(668,0)" x2="0" y2="5" stroke="#888" stroke-width="1" opacity="1"/><line transform="translate(675,0)" x2="0" y2="5" stroke="#888" stroke-width="1" opacity="1"/><line transform="translate(683,0)" x2="0" y2="5" stroke="#888" stroke-width="1" opacity="1"/><line transform="translate(691,0)" x2="0" y2="5" stroke="#888" stroke-width="1" opacity="1"/><line transform="translate(698,0)" x2="0" y2="5" stroke="#888" stroke-width="1" opacity="1"/><line transform="translate(706,0)" x2="0" y2="5" stroke="#888" stroke-width="1" opacity="1"/><line transform="translate(713,0)" x2="0" y2="5" stroke="#888" stroke-width="1" opacity="1"/><line transform="translate(721,0)" x2="0" y2="5" stroke="#888" stroke-width="1" opacity="1"/><line transform="translate(728,0)" x2="0" y2="5" stroke="#888" stroke-width="1" opacity="1"/><line transform="translate(736,0)" x2="0" y2="5" stroke="#888" stroke-width="1" opacity="1"/><line transform="translate(743,0)" x2="0" y2="5" stroke="#888" stroke-width="1" opacity="1"/><line transform="translate(751,0)" x2="0" y2="5" stroke="#888" stroke-width="1" opacity="1"/><line transform="translate(758,0)" x2="0" y2="5" stroke="#888" stroke-width="1" opacity="1"/><line transform="translate(766,0)" x2="0" y2="5" stroke="#888" stroke-width="1" opacity="1"/><line transform="translate(774,0)" x2="0" y2="5" stroke="#888" stroke-width="1" opacity="1"/><line transform="translate(781,0)" x2="0" y2="5" stroke="#888" stroke-width="1" opacity="1"/><line transform="translate(789,0)" x2="0" y2="5" stroke="#888" stroke-width="1" opacity="1"/><line transform="translate(796,0)" x2="0" y2="5" stroke="#888" stroke-width="1" opacity="1"/></g><g class="mark-text role-axis-label" pointer-events="none"><text text-anchor="end" transform="translate(3.773584905660357,7) rotate(270) translate(0,3)" font-family="sans-serif" font-size="10px" fill="#000" opacity="1">Apr 2009</text><text text-anchor="end" transform="translate(11.320754716981112,7) rotate(270) translate(0,3)" font-family="sans-serif" font-size="10px" fill="#000" opacity="0">May 2009</text><text text-anchor="end" transform="translate(18.867924528301867,7) rotate(270) translate(0,3)" font-family="sans-serif" font-size="10px" fill="#000" opacity="1">Jun 2009</text><text text-anchor="end" transform="translate(26.41509433962262,7) rotate(270) translate(0,3)" font-family="sans-serif" font-size="10px" fill="#000" opacity="0">Jul 2009</text><text text-anchor="end" transform="translate(33.962264150943376,7) rotate(270) translate(0,3)" font-family="sans-serif" font-size="10px" fill="#000" opacity="1">Aug 2009</text><text text-anchor="end" transform="translate(41.50943396226413,7) rotate(270) translate(0,3)" font-family="sans-serif" font-size="10px" fill="#000" opacity="0">Sep 2009</text><text text-anchor="end" transform="translate(49.05660377358488,7) rotate(270) translate(0,3)" font-family="sans-serif" font-size="10px" fill="#000" opacity="1">Oct 2009</text><text text-anchor="end" transform="translate(56.60377358490564,7) rotate(270) translate(0,3)" font-family="sans-serif" font-size="10px" fill="#000" opacity="0">Nov 2009</text><text text-anchor="end" transform="translate(64.1509433962264,7) rotate(270) translate(0,3)" font-family="sans-serif" font-size="10px" fill="#000" opacity="1">Dec 2009</text><text text-anchor="end" transform="translate(71.69811320754715,7) rotate(270) translate(0,3)" font-family="sans-serif" font-size="10px" fill="#000" opacity="0">Jan 2010</text><text text-anchor="end" transform="translate(79.24528301886791,7) rotate(270) translate(0,3)" font-family="sans-serif" font-size="10px" fill="#000" opacity="1">Feb 2010</text><text text-anchor="end" transform="translate(86.79245283018867,7) rotate(270) translate(0,3)" font-family="sans-serif" font-size="10px" fill="#000" opacity="0">Mar 2010</text><text text-anchor="end" transform="translate(94.33962264150941,7) rotate(270) translate(0,3)" font-family="sans-serif" font-size="10px" fill="#000" opacity="1">Apr 2010</text><text text-anchor="end" transform="translate(101.88679245283016,7) rotate(270) translate(0,3)" font-family="sans-serif" font-size="10px" fill="#000" opacity="0">May 2010</text><text text-anchor="end" transform="translate(109.43396226415092,7) rotate(270) translate(0,3)" font-family="sans-serif" font-size="10px" fill="#000" opacity="1">Jun 2010</text><text text-anchor="end" transform="translate(116.98113207547168,7) rotate(270) translate(0,3)" font-family="sans-serif" font-size="10px" fill="#000" opacity="0">Jul 2010</text><text text-anchor="end" transform="translate(124.52830188679243,7) rotate(270) translate(0,3)" font-family="sans-serif" font-size="10px" fill="#000" opacity="1">Aug 2010</text><text text-anchor="end" transform="translate(132.07547169811318,7) rotate(270) translate(0,3)" font-family="sans-serif" font-size="10px" fill="#000" opacity="0">Sep 2010</text><text text-anchor="end" transform="translate(139.62264150943395,7) rotate(270) translate(0,3)" font-family="sans-serif" font-size="10px" fill="#000" opacity="1">Oct 2010</text><text text-anchor="end" transform="translate(147.1698113207547,7) rotate(270) translate(0,3)" font-family="sans-serif" font-size="10px" fill="#000" opacity="0">Nov 2010</text><text text-anchor="end" transform="translate(154.71698113207546,7) rotate(270) translate(0,3)" font-family="sans-serif" font-size="10px" fill="#000" opacity="1">Dec 2010</text><text text-anchor="end" transform="translate(162.2641509433962,7) rotate(270) translate(0,3)" font-family="sans-serif" font-size="10px" fill="#000" opacity="0">Jan 2011</text><text text-anchor="end" transform="translate(169.81132075471697,7) rotate(270) translate(0,3)" font-family="sans-serif" font-size="10px" fill="#000" opacity="1">Feb 2011</text><text text-anchor="end" transform="translate(177.35849056603772,7) rotate(270) translate(0,3)" font-family="sans-serif" font-size="10px" fill="#000" opacity="0">Mar 2011</text><text text-anchor="end" transform="translate(184.90566037735846,7) rotate(270) translate(0,3)" font-family="sans-serif" font-size="10px" fill="#000" opacity="1">Apr 2011</text><text text-anchor="end" transform="translate(192.45283018867923,7) rotate(270) translate(0,3)" font-family="sans-serif" font-size="10px" fill="#000" opacity="0">May 2011</text><text text-anchor="end" transform="translate(199.99999999999997,7) rotate(270) translate(0,3)" font-family="sans-serif" font-size="10px" fill="#000" opacity="1">Jun 2011</text><text text-anchor="end" transform="translate(207.54716981132074,7) rotate(270) translate(0,3)" font-family="sans-serif" font-size="10px" fill="#000" opacity="0">Jul 2011</text><text text-anchor="end" transform="translate(215.09433962264148,7) rotate(270) translate(0,3)" font-family="sans-serif" font-size="10px" fill="#000" opacity="1">Aug 2011</text><text text-anchor="end" transform="translate(222.64150943396226,7) rotate(270) translate(0,3)" font-family="sans-serif" font-size="10px" fill="#000" opacity="0">Sep 2011</text><text text-anchor="end" transform="translate(230.188679245283,7) rotate(270) translate(0,3)" font-family="sans-serif" font-size="10px" fill="#000" opacity="1">Oct 2011</text><text text-anchor="end" transform="translate(237.73584905660377,7) rotate(270) translate(0,3)" font-family="sans-serif" font-size="10px" fill="#000" opacity="0">Nov 2011</text><text text-anchor="end" transform="translate(245.2830188679245,7) rotate(270) translate(0,3)" font-family="sans-serif" font-size="10px" fill="#000" opacity="1">Dec 2011</text><text text-anchor="end" transform="translate(252.83018867924525,7) rotate(270) translate(0,3)" font-family="sans-serif" font-size="10px" fill="#000" opacity="0">Jan 2012</text><text text-anchor="end" transform="translate(260.377358490566,7) rotate(270) translate(0,3)" font-family="sans-serif" font-size="10px" fill="#000" opacity="1">Feb 2012</text><text text-anchor="end" transform="translate(267.92452830188677,7) rotate(270) translate(0,3)" font-family="sans-serif" font-size="10px" fill="#000" opacity="0">Mar 2012</text><text text-anchor="end" transform="translate(275.47169811320754,7) rotate(270) translate(0,3)" font-family="sans-serif" font-size="10px" fill="#000" opacity="1">Apr 2012</text><text text-anchor="end" transform="translate(283.0188679245283,7) rotate(270) translate(0,3)" font-family="sans-serif" font-size="10px" fill="#000" opacity="0">May 2012</text><text text-anchor="end" transform="translate(290.566037735849,7) rotate(270) translate(0,3)" font-family="sans-serif" font-size="10px" fill="#000" opacity="1">Jun 2012</text><text text-anchor="end" transform="translate(298.1132075471698,7) rotate(270) translate(0,3)" font-family="sans-serif" font-size="10px" fill="#000" opacity="0">Jul 2012</text><text text-anchor="end" transform="translate(305.66037735849056,7) rotate(270) translate(0,3)" font-family="sans-serif" font-size="10px" fill="#000" opacity="1">Aug 2012</text><text text-anchor="end" transform="translate(313.2075471698113,7) rotate(270) translate(0,3)" font-family="sans-serif" font-size="10px" fill="#000" opacity="0">Sep 2012</text><text text-anchor="end" transform="translate(320.75471698113205,7) rotate(270) translate(0,3)" font-family="sans-serif" font-size="10px" fill="#000" opacity="1">Oct 2012</text><text text-anchor="end" transform="translate(328.3018867924528,7) rotate(270) translate(0,3)" font-family="sans-serif" font-size="10px" fill="#000" opacity="0">Nov 2012</text><text text-anchor="end" transform="translate(335.8490566037736,7) rotate(270) translate(0,3)" font-family="sans-serif" font-size="10px" fill="#000" opacity="1">Dec 2012</text><text text-anchor="end" transform="translate(343.3962264150943,7) rotate(270) translate(0,3)" font-family="sans-serif" font-size="10px" fill="#000" opacity="0">Jan 2013</text><text text-anchor="end" transform="translate(350.9433962264151,7) rotate(270) translate(0,3)" font-family="sans-serif" font-size="10px" fill="#000" opacity="1">Feb 2013</text><text text-anchor="end" transform="translate(358.49056603773585,7) rotate(270) translate(0,3)" font-family="sans-serif" font-size="10px" fill="#000" opacity="0">Mar 2013</text><text text-anchor="end" transform="translate(366.03773584905656,7) rotate(270) translate(0,3)" font-family="sans-serif" font-size="10px" fill="#000" opacity="1">Apr 2013</text><text text-anchor="end" transform="translate(373.58490566037733,7) rotate(270) translate(0,3)" font-family="sans-serif" font-size="10px" fill="#000" opacity="0">May 2013</text><text text-anchor="end" transform="translate(381.1320754716981,7) rotate(270) translate(0,3)" font-family="sans-serif" font-size="10px" fill="#000" opacity="1">Jun 2013</text><text text-anchor="end" transform="translate(388.6792452830189,7) rotate(270) translate(0,3)" font-family="sans-serif" font-size="10px" fill="#000" opacity="0">Jul 2013</text><text text-anchor="end" transform="translate(396.2264150943396,7) rotate(270) translate(0,3)" font-family="sans-serif" font-size="10px" fill="#000" opacity="1">Aug 2013</text><text text-anchor="end" transform="translate(403.77358490566036,7) rotate(270) translate(0,3)" font-family="sans-serif" font-size="10px" fill="#000" opacity="0">Sep 2013</text><text text-anchor="end" transform="translate(411.3207547169811,7) rotate(270) translate(0,3)" font-family="sans-serif" font-size="10px" fill="#000" opacity="1">Oct 2013</text><text text-anchor="end" transform="translate(418.8679245283019,7) rotate(270) translate(0,3)" font-family="sans-serif" font-size="10px" fill="#000" opacity="0">Nov 2013</text><text text-anchor="end" transform="translate(426.4150943396226,7) rotate(270) translate(0,3)" font-family="sans-serif" font-size="10px" fill="#000" opacity="1">Dec 2013</text><text text-anchor="end" transform="translate(433.9622641509434,7) rotate(270) translate(0,3)" font-family="sans-serif" font-size="10px" fill="#000" opacity="0">Jan 2014</text><text text-anchor="end" transform="translate(441.50943396226415,7) rotate(270) translate(0,3)" font-family="sans-serif" font-size="10px" fill="#000" opacity="1">Feb 2014</text><text text-anchor="end" transform="translate(449.05660377358487,7) rotate(270) translate(0,3)" font-family="sans-serif" font-size="10px" fill="#000" opacity="0">Mar 2014</text><text text-anchor="end" transform="translate(456.60377358490564,7) rotate(270) translate(0,3)" font-family="sans-serif" font-size="10px" fill="#000" opacity="1">Apr 2014</text><text text-anchor="end" transform="translate(464.1509433962264,7) rotate(270) translate(0,3)" font-family="sans-serif" font-size="10px" fill="#000" opacity="0">May 2014</text><text text-anchor="end" transform="translate(471.6981132075472,7) rotate(270) translate(0,3)" font-family="sans-serif" font-size="10px" fill="#000" opacity="1">Jun 2014</text><text text-anchor="end" transform="translate(479.2452830188679,7) rotate(270) translate(0,3)" font-family="sans-serif" font-size="10px" fill="#000" opacity="0">Jul 2014</text><text text-anchor="end" transform="translate(486.79245283018867,7) rotate(270) translate(0,3)" font-family="sans-serif" font-size="10px" fill="#000" opacity="1">Aug 2014</text><text text-anchor="end" transform="translate(494.33962264150944,7) rotate(270) translate(0,3)" font-family="sans-serif" font-size="10px" fill="#000" opacity="0">Sep 2014</text><text text-anchor="end" transform="translate(501.88679245283015,7) rotate(270) translate(0,3)" font-family="sans-serif" font-size="10px" fill="#000" opacity="1">Oct 2014</text><text text-anchor="end" transform="translate(509.4339622641509,7) rotate(270) translate(0,3)" font-family="sans-serif" font-size="10px" fill="#000" opacity="0">Nov 2014</text><text text-anchor="end" transform="translate(516.9811320754716,7) rotate(270) translate(0,3)" font-family="sans-serif" font-size="10px" fill="#000" opacity="1">Dec 2014</text><text text-anchor="end" transform="translate(524.5283018867924,7) rotate(270) translate(0,3)" font-family="sans-serif" font-size="10px" fill="#000" opacity="0">Jan 2015</text><text text-anchor="end" transform="translate(532.0754716981132,7) rotate(270) translate(0,3)" font-family="sans-serif" font-size="10px" fill="#000" opacity="1">Feb 2015</text><text text-anchor="end" transform="translate(539.6226415094341,7) rotate(270) translate(0,3)" font-family="sans-serif" font-size="10px" fill="#000" opacity="0">Mar 2015</text><text text-anchor="end" transform="translate(547.1698113207547,7) rotate(270) translate(0,3)" font-family="sans-serif" font-size="10px" fill="#000" opacity="1">Apr 2015</text><text text-anchor="end" transform="translate(554.7169811320755,7) rotate(270) translate(0,3)" font-family="sans-serif" font-size="10px" fill="#000" opacity="0">May 2015</text><text text-anchor="end" transform="translate(562.2641509433963,7) rotate(270) translate(0,3)" font-family="sans-serif" font-size="10px" fill="#000" opacity="1">Jun 2015</text><text text-anchor="end" transform="translate(569.8113207547169,7) rotate(270) translate(0,3)" font-family="sans-serif" font-size="10px" fill="#000" opacity="0">Jul 2015</text><text text-anchor="end" transform="translate(577.3584905660377,7) rotate(270) translate(0,3)" font-family="sans-serif" font-size="10px" fill="#000" opacity="1">Aug 2015</text><text text-anchor="end" transform="translate(584.9056603773586,7) rotate(270) translate(0,3)" font-family="sans-serif" font-size="10px" fill="#000" opacity="0">Sep 2015</text><text text-anchor="end" transform="translate(592.4528301886792,7) rotate(270) translate(0,3)" font-family="sans-serif" font-size="10px" fill="#000" opacity="1">Oct 2015</text><text text-anchor="end" transform="translate(600,7) rotate(270) translate(0,3)" font-family="sans-serif" font-size="10px" fill="#000" opacity="0">Nov 2015</text><text text-anchor="end" transform="translate(607.5471698113208,7) rotate(270) translate(0,3)" font-family="sans-serif" font-size="10px" fill="#000" opacity="1">Dec 2015</text><text text-anchor="end" transform="translate(615.0943396226414,7) rotate(270) translate(0,3)" font-family="sans-serif" font-size="10px" fill="#000" opacity="0">Jan 2016</text><text text-anchor="end" transform="translate(622.6415094339623,7) rotate(270) translate(0,3)" font-family="sans-serif" font-size="10px" fill="#000" opacity="1">Feb 2016</text><text text-anchor="end" transform="translate(630.1886792452831,7) rotate(270) translate(0,3)" font-family="sans-serif" font-size="10px" fill="#000" opacity="0">Mar 2016</text><text text-anchor="end" transform="translate(637.7358490566037,7) rotate(270) translate(0,3)" font-family="sans-serif" font-size="10px" fill="#000" opacity="1">Apr 2016</text><text text-anchor="end" transform="translate(645.2830188679245,7) rotate(270) translate(0,3)" font-family="sans-serif" font-size="10px" fill="#000" opacity="0">May 2016</text><text text-anchor="end" transform="translate(652.8301886792453,7) rotate(270) translate(0,3)" font-family="sans-serif" font-size="10px" fill="#000" opacity="1">Jun 2016</text><text text-anchor="end" transform="translate(660.3773584905659,7) rotate(270) translate(0,3)" font-family="sans-serif" font-size="10px" fill="#000" opacity="0">Jul 2016</text><text text-anchor="end" transform="translate(667.9245283018868,7) rotate(270) translate(0,3)" font-family="sans-serif" font-size="10px" fill="#000" opacity="1">Aug 2016</text><text text-anchor="end" transform="translate(675.4716981132076,7) rotate(270) translate(0,3)" font-family="sans-serif" font-size="10px" fill="#000" opacity="0">Sep 2016</text><text text-anchor="end" transform="translate(683.0188679245282,7) rotate(270) translate(0,3)" font-family="sans-serif" font-size="10px" fill="#000" opacity="1">Oct 2016</text><text text-anchor="end" transform="translate(690.566037735849,7) rotate(270) translate(0,3)" font-family="sans-serif" font-size="10px" fill="#000" opacity="0">Nov 2016</text><text text-anchor="end" transform="translate(698.1132075471698,7) rotate(270) translate(0,3)" font-family="sans-serif" font-size="10px" fill="#000" opacity="1">Dec 2016</text><text text-anchor="end" transform="translate(705.6603773584905,7) rotate(270) translate(0,3)" font-family="sans-serif" font-size="10px" fill="#000" opacity="0">Jan 2017</text><text text-anchor="end" transform="translate(713.2075471698113,7) rotate(270) translate(0,3)" font-family="sans-serif" font-size="10px" fill="#000" opacity="1">Feb 2017</text><text text-anchor="end" transform="translate(720.7547169811321,7) rotate(270) translate(0,3)" font-family="sans-serif" font-size="10px" fill="#000" opacity="0">Mar 2017</text><text text-anchor="end" transform="translate(728.3018867924527,7) rotate(270) translate(0,3)" font-family="sans-serif" font-size="10px" fill="#000" opacity="1">Apr 2017</text><text text-anchor="end" transform="translate(735.8490566037735,7) rotate(270) translate(0,3)" font-family="sans-serif" font-size="10px" fill="#000" opacity="0">May 2017</text><text text-anchor="end" transform="translate(743.3962264150944,7) rotate(270) translate(0,3)" font-family="sans-serif" font-size="10px" fill="#000" opacity="1">Jun 2017</text><text text-anchor="end" transform="translate(750.9433962264152,7) rotate(270) translate(0,3)" font-family="sans-serif" font-size="10px" fill="#000" opacity="0">Jul 2017</text><text text-anchor="end" transform="translate(758.4905660377358,7) rotate(270) translate(0,3)" font-family="sans-serif" font-size="10px" fill="#000" opacity="1">Aug 2017</text><text text-anchor="end" transform="translate(766.0377358490566,7) rotate(270) translate(0,3)" font-family="sans-serif" font-size="10px" fill="#000" opacity="0">Sep 2017</text><text text-anchor="end" transform="translate(773.5849056603774,7) rotate(270) translate(0,3)" font-family="sans-serif" font-size="10px" fill="#000" opacity="1">Oct 2017</text><text text-anchor="end" transform="translate(781.132075471698,7) rotate(270) translate(0,3)" font-family="sans-serif" font-size="10px" fill="#000" opacity="0">Nov 2017</text><text text-anchor="end" transform="translate(788.6792452830189,7) rotate(270) translate(0,3)" font-family="sans-serif" font-size="10px" fill="#000" opacity="1">Dec 2017</text><text text-anchor="end" transform="translate(796.2264150943397,7) rotate(270) translate(0,3)" font-family="sans-serif" font-size="10px" fill="#000" opacity="0">Jan 2018</text></g><g class="mark-rule role-axis-domain" pointer-events="none"><line transform="translate(0,0)" x2="800" y2="0" stroke="#888" stroke-width="1" opacity="1"/></g><g class="mark-text role-axis-title" pointer-events="none"><text text-anchor="middle" transform="translate(400,62.8173828125)" font-family="sans-serif" font-size="11px" font-weight="bold" fill="#000" opacity="1">month launched</text></g></g><path class="foreground" aria-hidden="true" d="" pointer-events="none" display="none"/></g></g><g class="mark-group role-axis" role="graphics-symbol" aria-roledescription="axis" aria-label="Y-axis titled 'Count of Records' for a linear scale with values from 0 to 11,000"><g transform="translate(0.5,0.5)"><path class="background" aria-hidden="true" d="M0,0h0v0h0Z" pointer-events="none"/><g><g class="mark-rule role-axis-tick" pointer-events="none"><line transform="translate(0,300)" x2="-5" y2="0" stroke="#888" stroke-width="1" opacity="1"/><line transform="translate(0,273)" x2="-5" y2="0" stroke="#888" stroke-width="1" opacity="1"/><line transform="translate(0,245)" x2="-5" y2="0" stroke="#888" stroke-width="1" opacity="1"/><line transform="translate(0,218)" x2="-5" y2="0" stroke="#888" stroke-width="1" opacity="1"/><line transform="translate(0,191)" x2="-5" y2="0" stroke="#888" stroke-width="1" opacity="1"/><line transform="translate(0,164)" x2="-5" y2="0" stroke="#888" stroke-width="1" opacity="1"/><line transform="translate(0,136)" x2="-5" y2="0" stroke="#888" stroke-width="1" opacity="1"/><line transform="translate(0,109)" x2="-5" y2="0" stroke="#888" stroke-width="1" opacity="1"/><line transform="translate(0,82)" x2="-5" y2="0" stroke="#888" stroke-width="1" opacity="1"/><line transform="translate(0,55)" x2="-5" y2="0" stroke="#888" stroke-width="1" opacity="1"/><line transform="translate(0,27)" x2="-5" y2="0" stroke="#888" stroke-width="1" opacity="1"/><line transform="translate(0,0)" x2="-5" y2="0" stroke="#888" stroke-width="1" opacity="1"/></g><g class="mark-text role-axis-label" pointer-events="none"><text text-anchor="end" transform="translate(-7,303)" font-family="sans-serif" font-size="10px" fill="#000" opacity="1">0</text><text text-anchor="end" transform="translate(-7,275.7272727272727)" font-family="sans-serif" font-size="10px" fill="#000" opacity="1">1,000</text><text text-anchor="end" transform="translate(-7,248.45454545454544)" font-family="sans-serif" font-size="10px" fill="#000" opacity="1">2,000</text><text text-anchor="end" transform="translate(-7,221.1818181818182)" font-family="sans-serif" font-size="10px" fill="#000" opacity="1">3,000</text><text text-anchor="end" transform="translate(-7,193.9090909090909)" font-family="sans-serif" font-size="10px" fill="#000" opacity="1">4,000</text><text text-anchor="end" transform="translate(-7,166.63636363636363)" font-family="sans-serif" font-size="10px" fill="#000" opacity="1">5,000</text><text text-anchor="end" transform="translate(-7,139.36363636363637)" font-family="sans-serif" font-size="10px" fill="#000" opacity="1">6,000</text><text text-anchor="end" transform="translate(-7,112.0909090909091)" font-family="sans-serif" font-size="10px" fill="#000" opacity="1">7,000</text><text text-anchor="end" transform="translate(-7,84.81818181818181)" font-family="sans-serif" font-size="10px" fill="#000" opacity="1">8,000</text><text text-anchor="end" transform="translate(-7,57.54545454545453)" font-family="sans-serif" font-size="10px" fill="#000" opacity="1">9,000</text><text text-anchor="end" transform="translate(-7,30.27272727272728)" font-family="sans-serif" font-size="10px" fill="#000" opacity="1">10,000</text><text text-anchor="end" transform="translate(-7,3)" font-family="sans-serif" font-size="10px" fill="#000" opacity="1">11,000</text></g><g class="mark-rule role-axis-domain" pointer-events="none"><line transform="translate(0,300)" x2="0" y2="-300" stroke="#888" stroke-width="1" opacity="1"/></g><g class="mark-text role-axis-title" pointer-events="none"><text text-anchor="middle" transform="translate(-41.5859375,150) rotate(-90) translate(0,-2)" font-family="sans-serif" font-size="11px" font-weight="bold" fill="#000" opacity="1">Count of Records</text></g></g><path class="foreground" aria-hidden="true" d="" pointer-events="none" display="none"/></g></g><g class="mark-group role-scope pathgroup" role="graphics-object" aria-roledescription="group mark container"><g transform="translate(0,0)"><path class="background" aria-hidden="true" d="M0,0h800v300h-800Z"/><g><g class="mark-area role-mark marks" role="graphics-symbol" aria-roledescription="area mark container"><path d="M3.773584905660357,299.5090909090909L11.320754716981112,298.3090909090909L18.867924528301867,298.0909090909091L26.41509433962262,298.17272727272723L33.962264150943376,297.24545454545455L41.50943396226413,291.73636363636365L49.05660377358488,295.4181818181818L56.60377358490564,294.54545454545456L64.1509433962264,294.8181818181818L71.69811320754715,293.04545454545456L79.24528301886791,290.91818181818184L86.79245283018867,287.3727272727273L94.33962264150941,283.3909090909091L101.88679245283016,281.59090909090907L109.43396226415092,272.5090909090909L116.98113207547168,272.94545454545454L124.52830188679243,276.08181818181816L132.07547169811318,273.8454545454546L139.62264150943395,269.7272727272727L147.1698113207547,268.2818181818182L154.71698113207546,268.6636363636364L162.2641509433962,260.56363636363636L169.81132075471697,254.45454545454544L177.35849056603772,248.78181818181818L184.90566037735846,243.46363636363637L192.45283018867923,243.35454545454547L199.99999999999997,242.64545454545456L207.54716981132074,241.03636363636363L215.09433962264148,242.61818181818182L222.64150943396226,245.97272727272727L230.188679245283,241.88181818181818L237.73584905660377,234.13636363636365L245.2830188679245,244.00909090909093L252.83018867924525,225.68181818181816L260.377358490566,212.64545454545453L267.92452830188677,196.52727272727276L275.47169811320754,204.16363636363636L283.0188679245283,198.76363636363635L290.566037735849,199.22727272727272L298.1132075471698,206.10000000000002L305.66037735849056,210.81818181818178L313.2075471698113,222.08181818181816L320.75471698113205,211.5818181818182L328.3018867924528,219.76363636363638L335.8490566037736,241.71818181818182L343.3962264150943,215.97272727272724L350.9433962264151,215.04545454545453L358.49056603773585,203.10000000000002L366.03773584905656,198.70909090909092L373.58490566037733,194.75454545454545L381.1320754716981,202.88181818181818L388.6792452830189,202.3090909090909L396.2264150943396,213.0818181818182L403.77358490566036,209.01818181818183L411.3207547169811,198.9272727272727L418.8679245283019,196.20000000000002L426.4150943396226,227.42727272727274L433.9622641509434,213.95454545454544L441.50943396226415,205.96363636363637L449.05660377358487,190.9090909090909L456.60377358490564,190.03636363636366L464.1509433962264,185.64545454545456L471.6981132075472,177.81818181818184L479.2452830188679,43.44545454545455L486.79245283018867,118.9090909090909L494.33962264150944,144.02727272727273L501.88679245283015,134.64545454545453L509.4339622641509,151.55454545454546L516.9811320754716,197.8090909090909L524.5283018867924,138.4909090909091L532.0754716981132,116.5090909090909L539.6226415094341,102.62727272727274L547.1698113207547,121.60909090909091L554.7169811320755,133.25454545454548L562.2641509433963,133.63636363636363L569.8113207547169,154.0909090909091L577.3584905660377,161.2909090909091L584.9056603773586,156.68181818181816L592.4528301886792,158.2909090909091L600,157.55454545454546L607.5471698113208,201.24545454545452L615.0943396226414,179.53636363636363L622.6415094339623,171.24545454545458L630.1886792452831,163.93636363636367L637.7358490566037,173.89090909090908L645.2830188679245,177.13636363636363L652.8301886792453,182.75454545454545L660.3773584905659,198.10909090909092L667.9245283018868,197.8090909090909L675.4716981132076,195.27272727272725L683.0188679245282,188.18181818181816L690.566037735849,185.18181818181816L698.1132075471698,221.53636363636363L705.6603773584905,192.95454545454547L713.2075471698113,202.3090909090909L720.7547169811321,171.6818181818182L728.3018867924527,194.3727272727273L735.8490566037735,181.85454545454544L743.3962264150944,189.98181818181817L750.9433962264152,198.8181818181818L758.4905660377358,195L766.0377358490566,201.3272727272727L773.5849056603774,187.33636363636361L781.132075471698,187.28181818181818L788.6792452830189,230.70000000000002L796.2264150943397,296.6727272727273L796.2264150943397,296.6727272727273L788.6792452830189,236.61818181818182L781.132075471698,240.24545454545455L773.5849056603774,249.13636363636363L766.0377358490566,255.9818181818182L758.4905660377358,255.4909090909091L750.9433962264152,258.4090909090909L743.3962264150944,254.4818181818182L735.8490566037735,251.42727272727274L728.3018867924527,254.75454545454545L720.7547169811321,243.24545454545458L713.2075471698113,259.1727272727273L705.6603773584905,255.29999999999998L698.1132075471698,275.0181818181818L690.566037735849,251.89090909090908L683.0188679245282,251.12727272727273L675.4716981132076,255.9818181818182L667.9245283018868,259.6363636363636L660.3773584905659,261.05454545454546L652.8301886792453,255.6818181818182L645.2830188679245,253.0090909090909L637.7358490566037,250.41818181818184L630.1886792452831,246.3272727272727L622.6415094339623,250.11818181818182L615.0943396226414,256.8545454545455L607.5471698113208,268.1727272727273L600,245.45454545454544L592.4528301886792,244.93636363636364L584.9056603773586,246.29999999999998L577.3584905660377,252.95454545454544L569.8113207547169,247.77272727272728L562.2641509433963,242.45454545454547L554.7169811320755,240.4090909090909L547.1698113207547,237.62727272727273L539.6226415094341,229.3909090909091L532.0754716981132,239.15454545454546L524.5283018867924,248.86363636363637L516.9811320754716,266.1L509.4339622641509,246.05454545454543L501.88679245283015,240.35454545454547L494.33962264150944,243.89999999999998L486.79245283018867,246.3272727272727L479.2452830188679,235.60909090909092L471.6981132075472,251.31818181818184L464.1509433962264,250.79999999999998L456.60377358490564,250.36363636363635L449.05660377358487,249.35454545454547L441.50943396226415,254.4L433.9622641509434,261.92727272727274L426.4150943396226,268.3636363636364L418.8679245283019,253.6090909090909L411.3207547169811,253.82727272727274L403.77358490566036,258.1363636363636L396.2264150943396,260.1818181818182L388.6792452830189,253.5818181818182L381.1320754716981,254.83636363636364L373.58490566037733,249.0818181818182L366.03773584905656,249.73636363636362L358.49056603773585,251.53636363636363L350.9433962264151,255.13636363636363L343.3962264150943,260.83636363636367L335.8490566037736,273.95454545454544L328.3018867924528,263.6727272727273L320.75471698113205,258.73636363636365L313.2075471698113,264.1363636363636L305.66037735849056,259.2L298.1132075471698,256.06363636363636L290.566037735849,252.16363636363636L283.0188679245283,254.12727272727273L275.47169811320754,254.23636363636365L267.92452830188677,251.29090909090908L260.377358490566,256.09090909090907L252.83018867924525,266.8909090909091L245.2830188679245,274.39090909090913L237.73584905660377,269.45454545454544L230.188679245283,269.7L222.64150943396226,272.8636363636364L215.09433962264148,270.8454545454546L207.54716981132074,269.3181818181818L199.99999999999997,270.40909090909093L192.45283018867923,272.0181818181818L184.90566037735846,270.0272727272727L177.35849056603772,271.1181818181818L169.81132075471697,276.27272727272725L162.2641509433962,280.44545454545454L154.71698113207546,284.94545454545454L147.1698113207547,283.4727272727273L139.62264150943395,284.8090909090909L132.07547169811318,287.23636363636365L124.52830188679243,289.2L116.98113207547168,288.43636363636364L109.43396226415092,288.27272727272725L101.88679245283016,291.3272727272727L94.33962264150941,291.8454545454545L86.79245283018867,293.09999999999997L79.24528301886791,295.3090909090909L71.69811320754715,296.3454545454546L64.1509433962264,297.3L56.60377358490564,297.02727272727276L49.05660377358488,297.6818181818182L41.50943396226413,296.56363636363636L33.962264150943376,298.6090909090909L26.41509433962262,299.1272727272727L18.867924528301867,299.0181818181818L11.320754716981112,299.1818181818182L3.773584905660357,299.7Z" fill="#f58518"/></g></g><path class="foreground" aria-hidden="true" d="" display="none"/></g><g transform="translate(0,0)"><path class="background" aria-hidden="true" d="M0,0h800v300h-800Z"/><g><g class="mark-area role-mark marks" role="graphics-symbol" aria-roledescription="area mark container"><path d="M3.773584905660357,299.4818181818182L11.320754716981112,297.9818181818182L18.867924528301867,297.95454545454544L26.41509433962262,297.8727272727273L33.962264150943376,296.8636363636364L41.50943396226413,290.5090909090909L49.05660377358488,294.7090909090909L56.60377358490564,294.05454545454546L64.1509433962264,294.3272727272727L71.69811320754715,291.92727272727274L79.24528301886791,289.8818181818182L86.79245283018867,286.06363636363636L94.33962264150941,281.5090909090909L101.88679245283016,279.27272727272725L109.43396226415092,270.1909090909091L116.98113207547168,270.90000000000003L124.52830188679243,273.6272727272727L132.07547169811318,271.96363636363634L139.62264150943395,267L147.1698113207547,265.3090909090909L154.71698113207546,265.47272727272724L162.2641509433962,256.52727272727276L169.81132075471697,250.82727272727274L177.35849056603772,244.77272727272728L184.90566037735846,238.8272727272727L192.45283018867923,237.60000000000002L199.99999999999997,237.43636363636364L207.54716981132074,235.4181818181818L215.09433962264148,236.72727272727272L222.64150943396226,241.33636363636361L230.188679245283,236.97272727272727L237.73584905660377,228.76363636363635L245.2830188679245,239.23636363636362L252.83018867924525,220.82727272727274L260.377358490566,208.41818181818184L267.92452830188677,189.5727272727273L275.47169811320754,197.10000000000002L283.0188679245283,191.94545454545454L290.566037735849,192.9L298.1132075471698,200.07272727272726L305.66037735849056,203.97272727272727L313.2075471698113,217.03636363636363L320.75471698113205,205.06363636363636L328.3018867924528,213.27272727272728L335.8490566037736,237.13636363636365L343.3962264150943,210.1090909090909L350.9433962264151,208.3909090909091L358.49056603773585,195.13636363636363L366.03773584905656,191.15454545454546L373.58490566037733,185.23636363636365L381.1320754716981,194.9181818181818L388.6792452830189,194.26363636363635L396.2264150943396,204.16363636363636L403.77358490566036,199.11818181818182L411.3207547169811,188.26363636363638L418.8679245283019,185.56363636363636L426.4150943396226,220.4727272727273L433.9622641509434,205.22727272727272L441.50943396226415,195.9L449.05660377358487,178.28181818181818L456.60377358490564,177.73636363636365L464.1509433962264,173.42727272727274L471.6981132075472,161.20909090909092L479.2452830188679,6.136363636363651L486.79245283018867,97.36363636363637L494.33962264150944,125.91818181818182L501.88679245283015,112.9090909090909L509.4339622641509,134.1L516.9811320754716,184.2L524.5283018867924,118.11818181818181L532.0754716981132,92.97272727272727L539.6226415094341,77.8909090909091L547.1698113207547,96.27272727272728L554.7169811320755,109.9090909090909L562.2641509433963,112.2818181818182L569.8113207547169,136.06363636363636L577.3584905660377,143.91818181818184L584.9056603773586,137.48181818181817L592.4528301886792,138.4090909090909L600,139.52727272727273L607.5471698113208,188.9727272727273L615.0943396226414,162.9272727272727L622.6415094339623,152.56363636363636L630.1886792452831,145.66363636363636L637.7358490566037,157.5818181818182L645.2830188679245,158.70000000000002L652.8301886792453,166.22727272727272L660.3773584905659,182.50909090909093L667.9245283018868,181.47272727272724L675.4716981132076,181.1181818181818L683.0188679245282,171.27272727272728L690.566037735849,169.66363636363639L698.1132075471698,210.73636363636362L705.6603773584905,178.6090909090909L713.2075471698113,190.1727272727273L720.7547169811321,156.8181818181818L728.3018867924527,180.5181818181818L735.8490566037735,168.98181818181817L743.3962264150944,177.16363636363636L750.9433962264152,184.93636363636364L758.4905660377358,181.2272727272727L766.0377358490566,188.18181818181816L773.5849056603774,172.03636363636363L781.132075471698,172.74545454545455L788.6792452830189,224.97272727272727L796.2264150943397,296.6181818181818L796.2264150943397,296.6727272727273L788.6792452830189,230.70000000000002L781.132075471698,187.28181818181818L773.5849056603774,187.33636363636361L766.0377358490566,201.3272727272727L758.4905660377358,195L750.9433962264152,198.8181818181818L743.3962264150944,189.98181818181817L735.8490566037735,181.85454545454544L728.3018867924527,194.3727272727273L720.7547169811321,171.6818181818182L713.2075471698113,202.3090909090909L705.6603773584905,192.95454545454547L698.1132075471698,221.53636363636363L690.566037735849,185.18181818181816L683.0188679245282,188.18181818181816L675.4716981132076,195.27272727272725L667.9245283018868,197.8090909090909L660.3773584905659,198.10909090909092L652.8301886792453,182.75454545454545L645.2830188679245,177.13636363636363L637.7358490566037,173.89090909090908L630.1886792452831,163.93636363636367L622.6415094339623,171.24545454545458L615.0943396226414,179.53636363636363L607.5471698113208,201.24545454545452L600,157.55454545454546L592.4528301886792,158.2909090909091L584.9056603773586,156.68181818181816L577.3584905660377,161.2909090909091L569.8113207547169,154.0909090909091L562.2641509433963,133.63636363636363L554.7169811320755,133.25454545454548L547.1698113207547,121.60909090909091L539.6226415094341,102.62727272727274L532.0754716981132,116.5090909090909L524.5283018867924,138.4909090909091L516.9811320754716,197.8090909090909L509.4339622641509,151.55454545454546L501.88679245283015,134.64545454545453L494.33962264150944,144.02727272727273L486.79245283018867,118.9090909090909L479.2452830188679,43.44545454545455L471.6981132075472,177.81818181818184L464.1509433962264,185.64545454545456L456.60377358490564,190.03636363636366L449.05660377358487,190.9090909090909L441.50943396226415,205.96363636363637L433.9622641509434,213.95454545454544L426.4150943396226,227.42727272727274L418.8679245283019,196.20000000000002L411.3207547169811,198.9272727272727L403.77358490566036,209.01818181818183L396.2264150943396,213.0818181818182L388.6792452830189,202.3090909090909L381.1320754716981,202.88181818181818L373.58490566037733,194.75454545454545L366.03773584905656,198.70909090909092L358.49056603773585,203.10000000000002L350.9433962264151,215.04545454545453L343.3962264150943,215.97272727272724L335.8490566037736,241.71818181818182L328.3018867924528,219.76363636363638L320.75471698113205,211.5818181818182L313.2075471698113,222.08181818181816L305.66037735849056,210.81818181818178L298.1132075471698,206.10000000000002L290.566037735849,199.22727272727272L283.0188679245283,198.76363636363635L275.47169811320754,204.16363636363636L267.92452830188677,196.52727272727276L260.377358490566,212.64545454545453L252.83018867924525,225.68181818181816L245.2830188679245,244.00909090909093L237.73584905660377,234.13636363636365L230.188679245283,241.88181818181818L222.64150943396226,245.97272727272727L215.09433962264148,242.61818181818182L207.54716981132074,241.03636363636363L199.99999999999997,242.64545454545456L192.45283018867923,243.35454545454547L184.90566037735846,243.46363636363637L177.35849056603772,248.78181818181818L169.81132075471697,254.45454545454544L162.2641509433962,260.56363636363636L154.71698113207546,268.6636363636364L147.1698113207547,268.2818181818182L139.62264150943395,269.7272727272727L132.07547169811318,273.8454545454546L124.52830188679243,276.08181818181816L116.98113207547168,272.94545454545454L109.43396226415092,272.5090909090909L101.88679245283016,281.59090909090907L94.33962264150941,283.3909090909091L86.79245283018867,287.3727272727273L79.24528301886791,290.91818181818184L71.69811320754715,293.04545454545456L64.1509433962264,294.8181818181818L56.60377358490564,294.54545454545456L49.05660377358488,295.4181818181818L41.50943396226413,291.73636363636365L33.962264150943376,297.24545454545455L26.41509433962262,298.17272727272723L18.867924528301867,298.0909090909091L11.320754716981112,298.3090909090909L3.773584905660357,299.5090909090909Z" fill="#4c78a8"/></g></g><path class="foreground" aria-hidden="true" d="" display="none"/></g><g transform="translate(0,0)"><path class="background" aria-hidden="true" d="M0,0h800v300h-800Z"/><g><g class="mark-area role-mark marks" role="graphics-symbol" aria-roledescription="area mark container"><path d="M3.773584905660357,299.7L11.320754716981112,299.1818181818182L18.867924528301867,299.0181818181818L26.41509433962262,299.1272727272727L33.962264150943376,298.6090909090909L41.50943396226413,296.56363636363636L49.05660377358488,297.6818181818182L56.60377358490564,297.02727272727276L64.1509433962264,297.3L71.69811320754715,296.3454545454546L79.24528301886791,295.3090909090909L86.79245283018867,293.09999999999997L94.33962264150941,291.8454545454545L101.88679245283016,291.3272727272727L109.43396226415092,288.27272727272725L116.98113207547168,288.43636363636364L124.52830188679243,289.2L132.07547169811318,287.23636363636365L139.62264150943395,284.8090909090909L147.1698113207547,283.4727272727273L154.71698113207546,284.94545454545454L162.2641509433962,280.44545454545454L169.81132075471697,276.27272727272725L177.35849056603772,271.1181818181818L184.90566037735846,270.0272727272727L192.45283018867923,272.0181818181818L199.99999999999997,270.40909090909093L207.54716981132074,269.3181818181818L215.09433962264148,270.8454545454546L222.64150943396226,272.8636363636364L230.188679245283,269.7L237.73584905660377,269.45454545454544L245.2830188679245,274.39090909090913L252.83018867924525,266.8909090909091L260.377358490566,256.09090909090907L267.92452830188677,251.29090909090908L275.47169811320754,254.23636363636365L283.0188679245283,254.12727272727273L290.566037735849,252.16363636363636L298.1132075471698,256.06363636363636L305.66037735849056,259.2L313.2075471698113,264.1363636363636L320.75471698113205,258.73636363636365L328.3018867924528,263.6727272727273L335.8490566037736,273.95454545454544L343.3962264150943,260.83636363636367L350.9433962264151,255.13636363636363L358.49056603773585,251.53636363636363L366.03773584905656,249.73636363636362L373.58490566037733,249.0818181818182L381.1320754716981,254.83636363636364L388.6792452830189,253.5818181818182L396.2264150943396,260.1818181818182L403.77358490566036,258.1363636363636L411.3207547169811,253.82727272727274L418.8679245283019,253.6090909090909L426.4150943396226,268.3636363636364L433.9622641509434,261.92727272727274L441.50943396226415,254.4L449.05660377358487,249.35454545454547L456.60377358490564,250.36363636363635L464.1509433962264,250.79999999999998L471.6981132075472,251.31818181818184L479.2452830188679,235.60909090909092L486.79245283018867,246.3272727272727L494.33962264150944,243.89999999999998L501.88679245283015,240.35454545454547L509.4339622641509,246.05454545454543L516.9811320754716,266.1L524.5283018867924,248.86363636363637L532.0754716981132,239.15454545454546L539.6226415094341,229.3909090909091L547.1698113207547,237.62727272727273L554.7169811320755,240.4090909090909L562.2641509433963,242.45454545454547L569.8113207547169,247.77272727272728L577.3584905660377,252.95454545454544L584.9056603773586,246.29999999999998L592.4528301886792,244.93636363636364L600,245.45454545454544L607.5471698113208,268.1727272727273L615.0943396226414,256.8545454545455L622.6415094339623,250.11818181818182L630.1886792452831,246.3272727272727L637.7358490566037,250.44545454545454L645.2830188679245,253.0090909090909L652.8301886792453,255.6818181818182L660.3773584905659,261.0818181818182L667.9245283018868,259.6363636363636L675.4716981132076,255.9818181818182L683.0188679245282,251.12727272727273L690.566037735849,251.89090909090908L698.1132075471698,275.0181818181818L705.6603773584905,255.32727272727274L713.2075471698113,259.1727272727273L720.7547169811321,243.27272727272728L728.3018867924527,254.75454545454545L735.8490566037735,251.42727272727274L743.3962264150944,254.4818181818182L750.9433962264152,258.43636363636364L758.4905660377358,255.4909090909091L766.0377358490566,255.9818181818182L773.5849056603774,249.16363636363639L781.132075471698,254.80909090909088L788.6792452830189,294.9L796.2264150943397,300L796.2264150943397,300L788.6792452830189,299.7L781.132075471698,299.1818181818182L773.5849056603774,299.3454545454546L766.0377358490566,299.1818181818182L758.4905660377358,299.1272727272727L750.9433962264152,298.9909090909091L743.3962264150944,298.7181818181818L735.8490566037735,299.1545454545454L728.3018867924527,299.3727272727273L720.7547169811321,299.1L713.2075471698113,299.6181818181818L705.6603773584905,299.23636363636365L698.1132075471698,299.45454545454544L690.566037735849,299.3181818181818L683.0188679245282,299.4818181818182L675.4716981132076,299.1L667.9245283018868,299.1545454545454L660.3773584905659,299.26363636363635L652.8301886792453,299.23636363636365L645.2830188679245,299.3727272727273L637.7358490566037,299.07272727272726L630.1886792452831,296.5090909090909L622.6415094339623,294.7909090909091L615.0943396226414,294.21818181818185L607.5471698113208,294.95454545454544L600,293.75454545454545L592.4528301886792,293.8090909090909L584.9056603773586,293.23636363636365L577.3584905660377,293.75454545454545L569.8113207547169,293.1818181818182L562.2641509433963,293.07272727272726L554.7169811320755,292.96363636363634L547.1698113207547,291.1909090909091L539.6226415094341,290.6454545454545L532.0754716981132,291.7909090909091L524.5283018867924,293.07272727272726L516.9811320754716,295.8L509.4339622641509,294.4090909090909L501.88679245283015,294.8727272727273L494.33962264150944,296.04545454545456L486.79245283018867,296.26363636363635L479.2452830188679,297.16363636363633L471.6981132075472,299.1272727272727L464.1509433962264,299.4818181818182L456.60377358490564,299.2909090909091L449.05660377358487,299.83636363636367L441.50943396226415,299.94545454545454L433.9622641509434,299.9181818181818L426.4150943396226,299.97272727272724L418.8679245283019,299.9181818181818L411.3207547169811,299.75454545454545L403.77358490566036,299.8909090909091L396.2264150943396,299.9181818181818L388.6792452830189,299.8090909090909L381.1320754716981,299.83636363636367L373.58490566037733,299.72727272727275L366.03773584905656,299.9181818181818L358.49056603773585,299.94545454545454L350.9433962264151,299.8909090909091L343.3962264150943,299.7818181818182L335.8490566037736,299.97272727272724L328.3018867924528,299.94545454545454L320.75471698113205,299.97272727272724L313.2075471698113,299.94545454545454L305.66037735849056,299.7L298.1132075471698,299.75454545454545L290.566037735849,299.9181818181818L283.0188679245283,299.7818181818182L275.47169811320754,299.94545454545454L267.92452830188677,299.9181818181818L260.377358490566,299.8090909090909L252.83018867924525,299.8636363636364L245.2830188679245,300L237.73584905660377,300L230.188679245283,300L222.64150943396226,300L215.09433962264148,299.75454545454545L207.54716981132074,299.83636363636367L199.99999999999997,299.83636363636367L192.45283018867923,299.8636363636364L184.90566037735846,299.75454545454545L177.35849056603772,299.9181818181818L169.81132075471697,299.8909090909091L162.2641509433962,299.94545454545454L154.71698113207546,299.8909090909091L147.1698113207547,299.9181818181818L139.62264150943395,299.9181818181818L132.07547169811318,300L124.52830188679243,299.8636363636364L116.98113207547168,300L109.43396226415092,299.97272727272724L101.88679245283016,300L94.33962264150941,300L86.79245283018867,300L79.24528301886791,300L71.69811320754715,300L64.1509433962264,300L56.60377358490564,300L49.05660377358488,300L41.50943396226413,300L33.962264150943376,300L26.41509433962262,300L18.867924528301867,300L11.320754716981112,300L3.773584905660357,300Z" fill="#72b7b2"/></g></g><path class="foreground" aria-hidden="true" d="" display="none"/></g><g transform="translate(0,0)"><path class="background" aria-hidden="true" d="M0,0h800v300h-800Z"/><g><g class="mark-area role-mark marks" role="graphics-symbol" aria-roledescription="area mark container"><path d="M3.773584905660357,299.7L11.320754716981112,299.1818181818182L18.867924528301867,299.0181818181818L26.41509433962262,299.1272727272727L33.962264150943376,298.6090909090909L41.50943396226413,296.56363636363636L49.05660377358488,297.6818181818182L56.60377358490564,297.02727272727276L64.1509433962264,297.3L71.69811320754715,296.3454545454546L79.24528301886791,295.3090909090909L86.79245283018867,293.09999999999997L94.33962264150941,291.8454545454545L101.88679245283016,291.3272727272727L109.43396226415092,288.27272727272725L116.98113207547168,288.43636363636364L124.52830188679243,289.2L132.07547169811318,287.23636363636365L139.62264150943395,284.8090909090909L147.1698113207547,283.4727272727273L154.71698113207546,284.94545454545454L162.2641509433962,280.44545454545454L169.81132075471697,276.27272727272725L177.35849056603772,271.1181818181818L184.90566037735846,270.0272727272727L192.45283018867923,272.0181818181818L199.99999999999997,270.40909090909093L207.54716981132074,269.3181818181818L215.09433962264148,270.8454545454546L222.64150943396226,272.8636363636364L230.188679245283,269.7L237.73584905660377,269.45454545454544L245.2830188679245,274.39090909090913L252.83018867924525,266.8909090909091L260.377358490566,256.09090909090907L267.92452830188677,251.29090909090908L275.47169811320754,254.23636363636365L283.0188679245283,254.12727272727273L290.566037735849,252.16363636363636L298.1132075471698,256.06363636363636L305.66037735849056,259.2L313.2075471698113,264.1363636363636L320.75471698113205,258.73636363636365L328.3018867924528,263.6727272727273L335.8490566037736,273.95454545454544L343.3962264150943,260.83636363636367L350.9433962264151,255.13636363636363L358.49056603773585,251.53636363636363L366.03773584905656,249.73636363636362L373.58490566037733,249.0818181818182L381.1320754716981,254.83636363636364L388.6792452830189,253.5818181818182L396.2264150943396,260.1818181818182L403.77358490566036,258.1363636363636L411.3207547169811,253.82727272727274L418.8679245283019,253.6090909090909L426.4150943396226,268.3636363636364L433.9622641509434,261.92727272727274L441.50943396226415,254.4L449.05660377358487,249.35454545454547L456.60377358490564,250.36363636363635L464.1509433962264,250.79999999999998L471.6981132075472,251.31818181818184L479.2452830188679,235.60909090909092L486.79245283018867,246.3272727272727L494.33962264150944,243.89999999999998L501.88679245283015,240.35454545454547L509.4339622641509,246.05454545454543L516.9811320754716,266.1L524.5283018867924,248.86363636363637L532.0754716981132,239.15454545454546L539.6226415094341,229.3909090909091L547.1698113207547,237.62727272727273L554.7169811320755,240.4090909090909L562.2641509433963,242.45454545454547L569.8113207547169,247.77272727272728L577.3584905660377,252.95454545454544L584.9056603773586,246.29999999999998L592.4528301886792,244.93636363636364L600,245.45454545454544L607.5471698113208,268.1727272727273L615.0943396226414,256.8545454545455L622.6415094339623,250.11818181818182L630.1886792452831,246.3272727272727L637.7358490566037,250.41818181818184L645.2830188679245,253.0090909090909L652.8301886792453,255.6818181818182L660.3773584905659,261.05454545454546L667.9245283018868,259.6363636363636L675.4716981132076,255.9818181818182L683.0188679245282,251.12727272727273L690.566037735849,251.89090909090908L698.1132075471698,275.0181818181818L705.6603773584905,255.29999999999998L713.2075471698113,259.1727272727273L720.7547169811321,243.24545454545458L728.3018867924527,254.75454545454545L735.8490566037735,251.42727272727274L743.3962264150944,254.4818181818182L750.9433962264152,258.4090909090909L758.4905660377358,255.4909090909091L766.0377358490566,255.9818181818182L773.5849056603774,249.13636363636363L781.132075471698,240.24545454545455L788.6792452830189,236.61818181818182L796.2264150943397,296.6727272727273L796.2264150943397,300L788.6792452830189,294.9L781.132075471698,254.80909090909088L773.5849056603774,249.16363636363639L766.0377358490566,255.9818181818182L758.4905660377358,255.4909090909091L750.9433962264152,258.43636363636364L743.3962264150944,254.4818181818182L735.8490566037735,251.42727272727274L728.3018867924527,254.75454545454545L720.7547169811321,243.27272727272728L713.2075471698113,259.1727272727273L705.6603773584905,255.32727272727274L698.1132075471698,275.0181818181818L690.566037735849,251.89090909090908L683.0188679245282,251.12727272727273L675.4716981132076,255.9818181818182L667.9245283018868,259.6363636363636L660.3773584905659,261.0818181818182L652.8301886792453,255.6818181818182L645.2830188679245,253.0090909090909L637.7358490566037,250.44545454545454L630.1886792452831,246.3272727272727L622.6415094339623,250.11818181818182L615.0943396226414,256.8545454545455L607.5471698113208,268.1727272727273L600,245.45454545454544L592.4528301886792,244.93636363636364L584.9056603773586,246.29999999999998L577.3584905660377,252.95454545454544L569.8113207547169,247.77272727272728L562.2641509433963,242.45454545454547L554.7169811320755,240.4090909090909L547.1698113207547,237.62727272727273L539.6226415094341,229.3909090909091L532.0754716981132,239.15454545454546L524.5283018867924,248.86363636363637L516.9811320754716,266.1L509.4339622641509,246.05454545454543L501.88679245283015,240.35454545454547L494.33962264150944,243.89999999999998L486.79245283018867,246.3272727272727L479.2452830188679,235.60909090909092L471.6981132075472,251.31818181818184L464.1509433962264,250.79999999999998L456.60377358490564,250.36363636363635L449.05660377358487,249.35454545454547L441.50943396226415,254.4L433.9622641509434,261.92727272727274L426.4150943396226,268.3636363636364L418.8679245283019,253.6090909090909L411.3207547169811,253.82727272727274L403.77358490566036,258.1363636363636L396.2264150943396,260.1818181818182L388.6792452830189,253.5818181818182L381.1320754716981,254.83636363636364L373.58490566037733,249.0818181818182L366.03773584905656,249.73636363636362L358.49056603773585,251.53636363636363L350.9433962264151,255.13636363636363L343.3962264150943,260.83636363636367L335.8490566037736,273.95454545454544L328.3018867924528,263.6727272727273L320.75471698113205,258.73636363636365L313.2075471698113,264.1363636363636L305.66037735849056,259.2L298.1132075471698,256.06363636363636L290.566037735849,252.16363636363636L283.0188679245283,254.12727272727273L275.47169811320754,254.23636363636365L267.92452830188677,251.29090909090908L260.377358490566,256.09090909090907L252.83018867924525,266.8909090909091L245.2830188679245,274.39090909090913L237.73584905660377,269.45454545454544L230.188679245283,269.7L222.64150943396226,272.8636363636364L215.09433962264148,270.8454545454546L207.54716981132074,269.3181818181818L199.99999999999997,270.40909090909093L192.45283018867923,272.0181818181818L184.90566037735846,270.0272727272727L177.35849056603772,271.1181818181818L169.81132075471697,276.27272727272725L162.2641509433962,280.44545454545454L154.71698113207546,284.94545454545454L147.1698113207547,283.4727272727273L139.62264150943395,284.8090909090909L132.07547169811318,287.23636363636365L124.52830188679243,289.2L116.98113207547168,288.43636363636364L109.43396226415092,288.27272727272725L101.88679245283016,291.3272727272727L94.33962264150941,291.8454545454545L86.79245283018867,293.09999999999997L79.24528301886791,295.3090909090909L71.69811320754715,296.3454545454546L64.1509433962264,297.3L56.60377358490564,297.02727272727276L49.05660377358488,297.6818181818182L41.50943396226413,296.56363636363636L33.962264150943376,298.6090909090909L26.41509433962262,299.1272727272727L18.867924528301867,299.0181818181818L11.320754716981112,299.1818181818182L3.773584905660357,299.7Z" fill="#e45756"/></g></g><path class="foreground" aria-hidden="true" d="" display="none"/></g><g transform="translate(0,0)"><path class="background" aria-hidden="true" d="M0,0h800v300h-800Z"/><g><g class="mark-area role-mark marks" role="graphics-symbol" aria-roledescription="area mark container"><path d="M3.773584905660357,300L11.320754716981112,300L18.867924528301867,300L26.41509433962262,300L33.962264150943376,300L41.50943396226413,300L49.05660377358488,300L56.60377358490564,300L64.1509433962264,300L71.69811320754715,300L79.24528301886791,300L86.79245283018867,300L94.33962264150941,300L101.88679245283016,300L109.43396226415092,300L116.98113207547168,300L124.52830188679243,300L132.07547169811318,300L139.62264150943395,300L147.1698113207547,300L154.71698113207546,300L162.2641509433962,300L169.81132075471697,300L177.35849056603772,300L184.90566037735846,300L192.45283018867923,300L199.99999999999997,300L207.54716981132074,300L215.09433962264148,300L222.64150943396226,300L230.188679245283,300L237.73584905660377,300L245.2830188679245,300L252.83018867924525,300L260.377358490566,300L267.92452830188677,299.97272727272724L275.47169811320754,300L283.0188679245283,300L290.566037735849,300L298.1132075471698,300L305.66037735849056,300L313.2075471698113,300L320.75471698113205,300L328.3018867924528,299.97272727272724L335.8490566037736,300L343.3962264150943,300L350.9433962264151,300L358.49056603773585,300L366.03773584905656,300L373.58490566037733,299.97272727272724L381.1320754716981,300L388.6792452830189,299.97272727272724L396.2264150943396,300L403.77358490566036,300L411.3207547169811,300L418.8679245283019,300L426.4150943396226,300L433.9622641509434,300L441.50943396226415,300L449.05660377358487,299.97272727272724L456.60377358490564,299.3454545454546L464.1509433962264,299.5909090909091L471.6981132075472,299.3727272727273L479.2452830188679,297.8181818181818L486.79245283018867,296.8636363636364L494.33962264150944,296.8363636363636L501.88679245283015,296.5090909090909L509.4339622641509,296.1L516.9811320754716,297.1090909090909L524.5283018867924,295.1181818181818L532.0754716981132,293.7818181818182L539.6226415094341,292.8272727272727L547.1698113207547,293.1545454545454L554.7169811320755,294.7090909090909L562.2641509433963,294.95454545454544L569.8113207547169,294.8454545454546L577.3584905660377,295.1727272727273L584.9056603773586,294.92727272727274L592.4528301886792,294.92727272727274L600,294.8454545454546L607.5471698113208,295.8272727272727L615.0943396226414,295.55454545454546L622.6415094339623,295.6363636363636L630.1886792452831,297.3L637.7358490566037,299.8636363636364L645.2830188679245,300L652.8301886792453,300L660.3773584905659,300L667.9245283018868,300L675.4716981132076,300L683.0188679245282,300L690.566037735849,300L698.1132075471698,300L705.6603773584905,300L713.2075471698113,300L720.7547169811321,300L728.3018867924527,300L735.8490566037735,300L743.3962264150944,300L750.9433962264152,300L758.4905660377358,300L766.0377358490566,300L773.5849056603774,300L781.132075471698,300L788.6792452830189,300L796.2264150943397,300L796.2264150943397,300L788.6792452830189,300L781.132075471698,300L773.5849056603774,300L766.0377358490566,300L758.4905660377358,300L750.9433962264152,300L743.3962264150944,300L735.8490566037735,300L728.3018867924527,300L720.7547169811321,300L713.2075471698113,300L705.6603773584905,300L698.1132075471698,300L690.566037735849,300L683.0188679245282,300L675.4716981132076,300L667.9245283018868,300L660.3773584905659,300L652.8301886792453,300L645.2830188679245,300L637.7358490566037,300L630.1886792452831,300L622.6415094339623,300L615.0943396226414,300L607.5471698113208,300L600,300L592.4528301886792,300L584.9056603773586,300L577.3584905660377,300L569.8113207547169,300L562.2641509433963,300L554.7169811320755,300L547.1698113207547,300L539.6226415094341,300L532.0754716981132,300L524.5283018867924,300L516.9811320754716,300L509.4339622641509,300L501.88679245283015,300L494.33962264150944,300L486.79245283018867,300L479.2452830188679,300L471.6981132075472,300L464.1509433962264,300L456.60377358490564,300L449.05660377358487,300L441.50943396226415,300L433.9622641509434,300L426.4150943396226,300L418.8679245283019,300L411.3207547169811,300L403.77358490566036,300L396.2264150943396,300L388.6792452830189,300L381.1320754716981,300L373.58490566037733,300L366.03773584905656,300L358.49056603773585,300L350.9433962264151,300L343.3962264150943,300L335.8490566037736,300L328.3018867924528,300L320.75471698113205,300L313.2075471698113,300L305.66037735849056,300L298.1132075471698,300L290.566037735849,300L283.0188679245283,300L275.47169811320754,300L267.92452830188677,300L260.377358490566,300L252.83018867924525,300L245.2830188679245,300L237.73584905660377,300L230.188679245283,300L222.64150943396226,300L215.09433962264148,300L207.54716981132074,300L199.99999999999997,300L192.45283018867923,300L184.90566037735846,300L177.35849056603772,300L169.81132075471697,300L162.2641509433962,300L154.71698113207546,300L147.1698113207547,300L139.62264150943395,300L132.07547169811318,300L124.52830188679243,300L116.98113207547168,300L109.43396226415092,300L101.88679245283016,300L94.33962264150941,300L86.79245283018867,300L79.24528301886791,300L71.69811320754715,300L64.1509433962264,300L56.60377358490564,300L49.05660377358488,300L41.50943396226413,300L33.962264150943376,300L26.41509433962262,300L18.867924528301867,300L11.320754716981112,300L3.773584905660357,300Z" fill="#eeca3b"/></g></g><path class="foreground" aria-hidden="true" d="" display="none"/></g><g transform="translate(0,0)"><path class="background" aria-hidden="true" d="M0,0h800v300h-800Z"/><g><g class="mark-area role-mark marks" role="graphics-symbol" aria-roledescription="area mark container"><path d="M3.773584905660357,300L11.320754716981112,300L18.867924528301867,300L26.41509433962262,300L33.962264150943376,300L41.50943396226413,300L49.05660377358488,300L56.60377358490564,300L64.1509433962264,300L71.69811320754715,300L79.24528301886791,300L86.79245283018867,300L94.33962264150941,300L101.88679245283016,300L109.43396226415092,299.97272727272724L116.98113207547168,300L124.52830188679243,299.8636363636364L132.07547169811318,300L139.62264150943395,299.9181818181818L147.1698113207547,299.9181818181818L154.71698113207546,299.8909090909091L162.2641509433962,299.94545454545454L169.81132075471697,299.8909090909091L177.35849056603772,299.9181818181818L184.90566037735846,299.75454545454545L192.45283018867923,299.8636363636364L199.99999999999997,299.83636363636367L207.54716981132074,299.83636363636367L215.09433962264148,299.75454545454545L222.64150943396226,300L230.188679245283,300L237.73584905660377,300L245.2830188679245,300L252.83018867924525,299.8636363636364L260.377358490566,299.8090909090909L267.92452830188677,299.9181818181818L275.47169811320754,299.94545454545454L283.0188679245283,299.7818181818182L290.566037735849,299.9181818181818L298.1132075471698,299.75454545454545L305.66037735849056,299.7L313.2075471698113,299.94545454545454L320.75471698113205,299.97272727272724L328.3018867924528,299.94545454545454L335.8490566037736,299.97272727272724L343.3962264150943,299.7818181818182L350.9433962264151,299.8909090909091L358.49056603773585,299.94545454545454L366.03773584905656,299.9181818181818L373.58490566037733,299.72727272727275L381.1320754716981,299.83636363636367L388.6792452830189,299.8090909090909L396.2264150943396,299.9181818181818L403.77358490566036,299.8909090909091L411.3207547169811,299.75454545454545L418.8679245283019,299.9181818181818L426.4150943396226,299.97272727272724L433.9622641509434,299.9181818181818L441.50943396226415,299.94545454545454L449.05660377358487,299.83636363636367L456.60377358490564,299.2909090909091L464.1509433962264,299.4818181818182L471.6981132075472,299.1272727272727L479.2452830188679,297.16363636363633L486.79245283018867,296.26363636363635L494.33962264150944,296.04545454545456L501.88679245283015,294.8727272727273L509.4339622641509,294.4090909090909L516.9811320754716,295.8L524.5283018867924,293.07272727272726L532.0754716981132,291.7909090909091L539.6226415094341,290.6454545454545L547.1698113207547,291.1909090909091L554.7169811320755,292.96363636363634L562.2641509433963,293.07272727272726L569.8113207547169,293.1818181818182L577.3584905660377,293.75454545454545L584.9056603773586,293.23636363636365L592.4528301886792,293.8090909090909L600,293.75454545454545L607.5471698113208,294.95454545454544L615.0943396226414,294.21818181818185L622.6415094339623,294.7909090909091L630.1886792452831,296.5090909090909L637.7358490566037,299.07272727272726L645.2830188679245,299.3727272727273L652.8301886792453,299.23636363636365L660.3773584905659,299.26363636363635L667.9245283018868,299.1545454545454L675.4716981132076,299.1L683.0188679245282,299.4818181818182L690.566037735849,299.3181818181818L698.1132075471698,299.45454545454544L705.6603773584905,299.23636363636365L713.2075471698113,299.6181818181818L720.7547169811321,299.1L728.3018867924527,299.3727272727273L735.8490566037735,299.1545454545454L743.3962264150944,298.7181818181818L750.9433962264152,298.9909090909091L758.4905660377358,299.1272727272727L766.0377358490566,299.1818181818182L773.5849056603774,299.3454545454546L781.132075471698,299.1818181818182L788.6792452830189,299.7L796.2264150943397,300L796.2264150943397,300L788.6792452830189,300L781.132075471698,300L773.5849056603774,300L766.0377358490566,300L758.4905660377358,300L750.9433962264152,300L743.3962264150944,300L735.8490566037735,300L728.3018867924527,300L720.7547169811321,300L713.2075471698113,300L705.6603773584905,300L698.1132075471698,300L690.566037735849,300L683.0188679245282,300L675.4716981132076,300L667.9245283018868,300L660.3773584905659,300L652.8301886792453,300L645.2830188679245,300L637.7358490566037,299.8636363636364L630.1886792452831,297.3L622.6415094339623,295.6363636363636L615.0943396226414,295.55454545454546L607.5471698113208,295.8272727272727L600,294.8454545454546L592.4528301886792,294.92727272727274L584.9056603773586,294.92727272727274L577.3584905660377,295.1727272727273L569.8113207547169,294.8454545454546L562.2641509433963,294.95454545454544L554.7169811320755,294.7090909090909L547.1698113207547,293.1545454545454L539.6226415094341,292.8272727272727L532.0754716981132,293.7818181818182L524.5283018867924,295.1181818181818L516.9811320754716,297.1090909090909L509.4339622641509,296.1L501.88679245283015,296.5090909090909L494.33962264150944,296.8363636363636L486.79245283018867,296.8636363636364L479.2452830188679,297.8181818181818L471.6981132075472,299.3727272727273L464.1509433962264,299.5909090909091L456.60377358490564,299.3454545454546L449.05660377358487,299.97272727272724L441.50943396226415,300L433.9622641509434,300L426.4150943396226,300L418.8679245283019,300L411.3207547169811,300L403.77358490566036,300L396.2264150943396,300L388.6792452830189,299.97272727272724L381.1320754716981,300L373.58490566037733,299.97272727272724L366.03773584905656,300L358.49056603773585,300L350.9433962264151,300L343.3962264150943,300L335.8490566037736,300L328.3018867924528,299.97272727272724L320.75471698113205,300L313.2075471698113,300L305.66037735849056,300L298.1132075471698,300L290.566037735849,300L283.0188679245283,300L275.47169811320754,300L267.92452830188677,299.97272727272724L260.377358490566,300L252.83018867924525,300L245.2830188679245,300L237.73584905660377,300L230.188679245283,300L222.64150943396226,300L215.09433962264148,300L207.54716981132074,300L199.99999999999997,300L192.45283018867923,300L184.90566037735846,300L177.35849056603772,300L169.81132075471697,300L162.2641509433962,300L154.71698113207546,300L147.1698113207547,300L139.62264150943395,300L132.07547169811318,300L124.52830188679243,300L116.98113207547168,300L109.43396226415092,300L101.88679245283016,300L94.33962264150941,300L86.79245283018867,300L79.24528301886791,300L71.69811320754715,300L64.1509433962264,300L56.60377358490564,300L49.05660377358488,300L41.50943396226413,300L33.962264150943376,300L26.41509433962262,300L18.867924528301867,300L11.320754716981112,300L3.773584905660357,300Z" fill="#54a24b"/></g></g><path class="foreground" aria-hidden="true" d="" display="none"/></g></g><g class="mark-group role-legend" role="graphics-symbol" aria-roledescription="legend" aria-label="Symbol legend titled 'outcome' for fill color with 6 values: canceled, failed, live, successful, suspended, undefined"><g transform="translate(818,0)"><path class="background" aria-hidden="true" d="M0,0h65v92h-65Z" pointer-events="none"/><g><g class="mark-group role-legend-entry"><g transform="translate(0,16)"><path class="background" aria-hidden="true" d="M0,0h0v0h0Z" pointer-events="none"/><g><g class="mark-group role-scope" role="graphics-object" aria-roledescription="group mark container"><g transform="translate(0,0)"><path class="background" aria-hidden="true" d="M0,0h64.9306640625v11h-64.9306640625Z" pointer-events="none" opacity="1"/><g><g class="mark-symbol role-legend-symbol" pointer-events="none"><path transform="translate(6,6)" d="M5,0A5,5,0,1,1,-5,0A5,5,0,1,1,5,0" fill="#4c78a8" stroke-width="1.5" opacity="1"/></g><g class="mark-text role-legend-label" pointer-events="none"><text text-anchor="start" transform="translate(16,9)" font-family="sans-serif" font-size="10px" fill="#000" opacity="1">canceled</text></g></g><path class="foreground" aria-hidden="true" d="" pointer-events="none" display="none"/></g><g transform="translate(0,13)"><path class="background" aria-hidden="true" d="M0,0h64.9306640625v11h-64.9306640625Z" pointer-events="none" opacity="1"/><g><g class="mark-symbol role-legend-symbol" pointer-events="none"><path transform="translate(6,6)" d="M5,0A5,5,0,1,1,-5,0A5,5,0,1,1,5,0" fill="#f58518" stroke-width="1.5" opacity="1"/></g><g class="mark-text role-legend-label" pointer-events="none"><text text-anchor="start" transform="translate(16,9)" font-family="sans-serif" font-size="10px" fill="#000" opacity="1">failed</text></g></g><path class="foreground" aria-hidden="true" d="" pointer-events="none" display="none"/></g><g transform="translate(0,26)"><path class="background" aria-hidden="true" d="M0,0h64.9306640625v11h-64.9306640625Z" pointer-events="none" opacity="1"/><g><g class="mark-symbol role-legend-symbol" pointer-events="none"><path transform="translate(6,6)" d="M5,0A5,5,0,1,1,-5,0A5,5,0,1,1,5,0" fill="#e45756" stroke-width="1.5" opacity="1"/></g><g class="mark-text role-legend-label" pointer-events="none"><text text-anchor="start" transform="translate(16,9)" font-family="sans-serif" font-size="10px" fill="#000" opacity="1">live</text></g></g><path class="foreground" aria-hidden="true" d="" pointer-events="none" display="none"/></g><g transform="translate(0,39)"><path class="background" aria-hidden="true" d="M0,0h64.9306640625v11h-64.9306640625Z" pointer-events="none" opacity="1"/><g><g class="mark-symbol role-legend-symbol" pointer-events="none"><path transform="translate(6,6)" d="M5,0A5,5,0,1,1,-5,0A5,5,0,1,1,5,0" fill="#72b7b2" stroke-width="1.5" opacity="1"/></g><g class="mark-text role-legend-label" pointer-events="none"><text text-anchor="start" transform="translate(16,9)" font-family="sans-serif" font-size="10px" fill="#000" opacity="1">successful</text></g></g><path class="foreground" aria-hidden="true" d="" pointer-events="none" display="none"/></g><g transform="translate(0,52)"><path class="background" aria-hidden="true" d="M0,0h64.9306640625v11h-64.9306640625Z" pointer-events="none" opacity="1"/><g><g class="mark-symbol role-legend-symbol" pointer-events="none"><path transform="translate(6,6)" d="M5,0A5,5,0,1,1,-5,0A5,5,0,1,1,5,0" fill="#54a24b" stroke-width="1.5" opacity="1"/></g><g class="mark-text role-legend-label" pointer-events="none"><text text-anchor="start" transform="translate(16,9)" font-family="sans-serif" font-size="10px" fill="#000" opacity="1">suspended</text></g></g><path class="foreground" aria-hidden="true" d="" pointer-events="none" display="none"/></g><g transform="translate(0,65)"><path class="background" aria-hidden="true" d="M0,0h64.9306640625v11h-64.9306640625Z" pointer-events="none" opacity="1"/><g><g class="mark-symbol role-legend-symbol" pointer-events="none"><path transform="translate(6,6)" d="M5,0A5,5,0,1,1,-5,0A5,5,0,1,1,5,0" fill="#eeca3b" stroke-width="1.5" opacity="1"/></g><g class="mark-text role-legend-label" pointer-events="none"><text text-anchor="start" transform="translate(16,9)" font-family="sans-serif" font-size="10px" fill="#000" opacity="1">undefined</text></g></g><path class="foreground" aria-hidden="true" d="" pointer-events="none" display="none"/></g></g></g><path class="foreground" aria-hidden="true" d="" pointer-events="none" display="none"/></g></g><g class="mark-text role-legend-title" pointer-events="none"><text text-anchor="start" transform="translate(0,9)" font-family="sans-serif" font-size="11px" font-weight="bold" fill="#000" opacity="1">outcome</text></g></g><path class="foreground" aria-hidden="true" d="" pointer-events="none" display="none"/></g></g><g class="mark-group role-title"><g transform="translate(-52.5859375,-22)"><path class="background" aria-hidden="true" d="M0,0h0v0h0Z" pointer-events="none"/><g><g class="mark-text role-title-text" role="graphics-symbol" aria-roledescription="title" aria-label="Title text 'Number and outcome of Kickstarter campaigns, 2009-2018'" pointer-events="none"><text text-anchor="start" transform="translate(0,10)" font-family="sans-serif" font-size="13px" font-weight="bold" fill="#000" opacity="1">Number and outcome of Kickstarter campaigns, 2009-2018</text></g></g><path class="foreground" aria-hidden="true" d="" pointer-events="none" display="none"/></g></g></g><path class="foreground" aria-hidden="true" d="" display="none"/></g></g></g></svg>